<svg width="123" height="61" viewBox="0 0 123 61" fill="none" xmlns="http://www.w3.org/2000/svg">
<path d="M62.5 19.3612C77.5 8.87385 83.3288 6.69693 91 3.37385C97.3667 0.740854 109 0.386724 111.5 1.87402" stroke="#98DA7E" stroke-width="2" stroke-linecap="round"/>
<path d="M3 58.3611C11.5 60.3611 21.3231 58.4525 28.5 55.8611C40.9367 49.9514 47.5291 46.0582 58.5 37.8611" stroke="#98DA7E" stroke-width="2" stroke-linecap="round"/>
<path d="M37.5 35.3611C23 30.8611 -0.999999 38.8611 1.50001 47.8611C4.41669 58.3611 28.347 53.4717 60 28.3611C91 3.76853 113.03 -0.022862 113 12.861C112.885 24.554 92.5 28.3611 81 25.3611" stroke="#98DA7E" stroke-width="2" stroke-linecap="round"/>
<path d="M9.97559 14.3447C9.74121 14.3389 9.44824 14.3359 9.09668 14.3359C8.74512 14.3301 8.36133 14.3242 7.94531 14.3184C7.53516 14.3125 7.10449 14.3096 6.65332 14.3096C6.20801 14.3037 5.77148 14.3008 5.34375 14.3008C4.91602 14.2949 4.50879 14.2949 4.12207 14.3008C3.73535 14.3066 3.39844 14.3154 3.11133 14.3271V16.9375C3.11133 17.4355 3.11719 17.8721 3.12891 18.2471C3.14648 18.6162 3.16406 18.9355 3.18164 19.2051C3.20508 19.4746 3.23145 19.7002 3.26074 19.8818C3.2959 20.0635 3.33105 20.2158 3.36621 20.3389V20.374H1.25684V20.3389C1.29199 20.2158 1.32422 20.0635 1.35352 19.8818C1.38867 19.7002 1.41797 19.4746 1.44141 19.2051C1.46484 18.9355 1.48242 18.6162 1.49414 18.2471C1.50586 17.8721 1.51172 17.4355 1.51172 16.9375V11.2158C1.51172 10.7178 1.50586 10.2842 1.49414 9.91504C1.48242 9.54004 1.46484 9.21777 1.44141 8.94824C1.41797 8.67285 1.38867 8.44434 1.35352 8.2627C1.32422 8.08105 1.29199 7.92871 1.25684 7.80566V7.77051H3.36621V7.80566C3.33105 7.92871 3.2959 8.08105 3.26074 8.2627C3.23145 8.44434 3.20508 8.67285 3.18164 8.94824C3.16406 9.21777 3.14648 9.54004 3.12891 9.91504C3.11719 10.2842 3.11133 10.7178 3.11133 11.2158V13.4658C3.41602 13.4775 3.76172 13.4863 4.14844 13.4922C4.53516 13.4922 4.93945 13.4922 5.36133 13.4922C5.7832 13.4863 6.21094 13.4805 6.64453 13.4746C7.08398 13.4688 7.50586 13.4629 7.91016 13.457C8.32031 13.4453 8.70117 13.4336 9.05273 13.4219C9.41016 13.4102 9.71777 13.3984 9.97559 13.3867V11.2158C9.97559 10.7178 9.9668 10.2842 9.94922 9.91504C9.9375 9.54004 9.91992 9.21777 9.89648 8.94824C9.87891 8.67285 9.85254 8.44434 9.81738 8.2627C9.78809 8.08105 9.75586 7.92871 9.7207 7.80566V7.77051H11.8301V7.80566C11.7949 7.92871 11.7598 8.08105 11.7246 8.2627C11.6953 8.44434 11.6689 8.67285 11.6455 8.94824C11.6221 9.21777 11.6045 9.54004 11.5928 9.91504C11.5811 10.2842 11.5752 10.7178 11.5752 11.2158V16.9375C11.5752 17.4355 11.5811 17.8721 11.5928 18.2471C11.6045 18.6162 11.6221 18.9355 11.6455 19.2051C11.6689 19.4746 11.6953 19.7002 11.7246 19.8818C11.7598 20.0635 11.7949 20.2158 11.8301 20.3389V20.374H9.7207V20.3389C9.75586 20.2158 9.78809 20.0635 9.81738 19.8818C9.85254 19.7002 9.87891 19.4746 9.89648 19.2051C9.91992 18.9355 9.9375 18.6162 9.94922 18.2471C9.9668 17.8721 9.97559 17.4355 9.97559 16.9375V14.3447ZM13.7461 17.7812C13.7461 17.3184 13.8398 16.917 14.0273 16.5771C14.2207 16.2373 14.4756 15.9473 14.792 15.707C15.1084 15.4668 15.4688 15.2734 15.873 15.127C16.2773 14.9746 16.6963 14.8574 17.1299 14.7754C17.5635 14.6875 17.9912 14.6289 18.4131 14.5996C18.835 14.5645 19.2217 14.5439 19.5732 14.5381V14.0898C19.5732 13.7031 19.5234 13.3691 19.4238 13.0879C19.3242 12.8066 19.1836 12.5752 19.002 12.3936C18.8203 12.2061 18.6006 12.0684 18.3428 11.9805C18.0908 11.8867 17.8125 11.8398 17.5078 11.8398C17.2969 11.8398 17.0889 11.8574 16.8838 11.8926C16.6787 11.9277 16.4648 11.9863 16.2422 12.0684C16.0254 12.1504 15.7939 12.2617 15.5479 12.4023C15.3076 12.543 15.0469 12.7217 14.7656 12.9385L14.6777 12.8857L15.2754 11.6465C15.4688 11.5586 15.6592 11.4883 15.8467 11.4355C16.0342 11.377 16.2246 11.3301 16.418 11.2949C16.6113 11.2598 16.8076 11.2363 17.0068 11.2246C17.2119 11.207 17.4258 11.1982 17.6484 11.1982C18.2637 11.1982 18.7881 11.2744 19.2217 11.4268C19.6611 11.5732 20.0186 11.7783 20.2939 12.042C20.5752 12.2998 20.7803 12.6045 20.9092 12.9561C21.0381 13.3018 21.1025 13.6738 21.1025 14.0723V16.9375C21.1025 17.4355 21.1084 17.8721 21.1201 18.2471C21.1377 18.6162 21.1553 18.9355 21.1729 19.2051C21.1963 19.4746 21.2227 19.7002 21.252 19.8818C21.2871 20.0635 21.3223 20.2158 21.3574 20.3389V20.374H19.415V20.3389C19.4443 20.2451 19.4648 20.1396 19.4766 20.0225C19.4941 19.9053 19.5088 19.7646 19.5205 19.6006C19.3975 19.7061 19.251 19.8145 19.0811 19.9258C18.917 20.0371 18.7266 20.1396 18.5098 20.2334C18.2988 20.3213 18.0615 20.3916 17.7979 20.4443C17.54 20.5029 17.2559 20.5322 16.9453 20.5322C15.9258 20.5322 15.1377 20.2949 14.5811 19.8203C14.0244 19.3398 13.7461 18.6602 13.7461 17.7812ZM19.5732 15.2236C19.04 15.2295 18.5273 15.2617 18.0352 15.3203C17.543 15.373 17.1064 15.4873 16.7256 15.6631C16.3506 15.8389 16.0488 16.0908 15.8203 16.4189C15.5977 16.7412 15.4863 17.1719 15.4863 17.7109C15.4863 18.4023 15.6592 18.9297 16.0049 19.293C16.3506 19.6562 16.8281 19.8379 17.4375 19.8379C17.7188 19.8379 17.9736 19.7998 18.2021 19.7236C18.4365 19.6416 18.6416 19.542 18.8174 19.4248C18.999 19.3018 19.1514 19.1699 19.2744 19.0293C19.3975 18.8828 19.4912 18.7422 19.5557 18.6074C19.5674 18.3848 19.5732 18.1387 19.5732 17.8691C19.5732 17.5938 19.5732 17.2832 19.5732 16.9375V15.2236ZM23.7656 14.8105C23.7656 14.3125 23.7568 13.8789 23.7393 13.5098C23.7275 13.1348 23.71 12.8125 23.6865 12.543C23.6689 12.2734 23.6426 12.0479 23.6074 11.8662C23.5781 11.6846 23.5459 11.5322 23.5107 11.4092V11.374H25.541V11.4092C25.4941 11.5439 25.4531 11.708 25.418 11.9014C25.3887 12.0947 25.3652 12.3438 25.3477 12.6484C25.5645 12.4668 25.79 12.2881 26.0244 12.1123C26.2588 11.9365 26.499 11.7812 26.7451 11.6465C26.9912 11.5117 27.2402 11.4033 27.4922 11.3213C27.75 11.2393 28.0078 11.1982 28.2656 11.1982C28.4238 11.1982 28.5615 11.207 28.6787 11.2246C28.7959 11.2363 28.9014 11.2568 28.9951 11.2861C29.0889 11.3096 29.1738 11.3389 29.25 11.374C29.3262 11.4033 29.3994 11.4326 29.4697 11.4619L29.0391 13.1406L28.8896 13.1055C28.8193 12.8477 28.6875 12.6426 28.4941 12.4902C28.3008 12.332 28.0371 12.2529 27.7031 12.2529C27.5215 12.2529 27.3311 12.2852 27.1318 12.3496C26.9326 12.4141 26.7305 12.5049 26.5254 12.6221C26.3203 12.7334 26.1152 12.8652 25.9102 13.0176C25.7051 13.1641 25.5059 13.3193 25.3125 13.4834C25.3008 13.6533 25.2949 13.8379 25.2949 14.0371C25.2949 14.2363 25.2949 14.4473 25.2949 14.6699V16.9375C25.2949 17.4355 25.3008 17.8721 25.3125 18.2471C25.3242 18.6162 25.3418 18.9355 25.3652 19.2051C25.3887 19.4746 25.415 19.7002 25.4443 19.8818C25.4736 20.0635 25.5059 20.2158 25.541 20.3389V20.374H23.5107V20.3389C23.5459 20.2158 23.5781 20.0635 23.6074 19.8818C23.6426 19.7002 23.6689 19.4746 23.6865 19.2051C23.71 18.9355 23.7275 18.6162 23.7393 18.2471C23.7568 17.8721 23.7656 17.4355 23.7656 16.9375V14.8105ZM34.084 7.78809C33.9375 7.78809 33.7793 7.81445 33.6094 7.86719C33.4453 7.91992 33.293 8.0166 33.1523 8.15723C33.0117 8.29785 32.8945 8.49414 32.8008 8.74609C32.707 8.99219 32.6602 9.31152 32.6602 9.7041V11.374C32.9707 11.3682 33.2607 11.3594 33.5303 11.3477C33.8057 11.3359 34.0518 11.3242 34.2686 11.3125C34.4854 11.3008 34.667 11.2891 34.8135 11.2773C34.96 11.2598 35.0654 11.2451 35.1299 11.2334L34.9717 12.1299C34.7666 12.124 34.5439 12.1152 34.3037 12.1035C34.0986 12.0918 33.8555 12.083 33.5742 12.0771C33.293 12.0713 32.9883 12.0654 32.6602 12.0596V16.9375C32.6602 17.4355 32.666 17.8721 32.6777 18.2471C32.6953 18.6162 32.7129 18.9355 32.7305 19.2051C32.7539 19.4746 32.7803 19.7002 32.8096 19.8818C32.8447 20.0635 32.8799 20.2158 32.915 20.3389V20.374H30.8848V20.3389C30.9199 20.2158 30.9521 20.0635 30.9814 19.8818C31.0107 19.7002 31.0371 19.4746 31.0605 19.2051C31.084 18.9355 31.1016 18.6162 31.1133 18.2471C31.125 17.8721 31.1309 17.4355 31.1309 16.9375V12.0596L29.6543 12.1123V11.3389C29.8359 11.3506 30.0527 11.3594 30.3047 11.3652C30.5566 11.3711 30.832 11.374 31.1309 11.374V9.89746C31.1309 9.44629 31.1953 9.04785 31.3242 8.70215C31.459 8.35059 31.6436 8.05762 31.8779 7.82324C32.1123 7.58301 32.3936 7.40137 32.7217 7.27832C33.0498 7.15527 33.4102 7.09375 33.8027 7.09375C34.0195 7.09375 34.2217 7.1084 34.4092 7.1377C34.5967 7.16699 34.7637 7.20215 34.9102 7.24316C35.0625 7.28418 35.1943 7.32813 35.3057 7.375C35.4229 7.41602 35.5195 7.4541 35.5957 7.48926L35.9385 9.00098L35.833 9.05371C35.7393 8.91309 35.6367 8.76953 35.5254 8.62305C35.4141 8.4707 35.2881 8.33301 35.1475 8.20996C35.0068 8.08691 34.8486 7.9873 34.6729 7.91113C34.5029 7.8291 34.3066 7.78809 34.084 7.78809ZM40.3594 20.5322C39.709 20.5322 39.0996 20.4297 38.5312 20.2246C37.9629 20.0195 37.4678 19.7207 37.0459 19.3281C36.624 18.9297 36.29 18.4404 36.0439 17.8604C35.8037 17.2744 35.6836 16.6064 35.6836 15.8564C35.6836 15.1943 35.7949 14.582 36.0176 14.0195C36.2402 13.4512 36.5479 12.959 36.9404 12.543C37.333 12.127 37.79 11.8018 38.3115 11.5674C38.8389 11.333 39.4072 11.2158 40.0166 11.2158C40.6201 11.2158 41.1797 11.3213 41.6953 11.5322C42.2109 11.7373 42.6562 12.0391 43.0312 12.4375C43.4121 12.8301 43.7109 13.3193 43.9277 13.9053C44.1504 14.4854 44.2705 15.1475 44.2881 15.8916C43.626 15.8799 42.9639 15.8711 42.3018 15.8652C41.6396 15.8594 40.9512 15.8564 40.2363 15.8564C39.7266 15.8564 39.2285 15.8594 38.7422 15.8652C38.2617 15.8711 37.8281 15.8799 37.4414 15.8916C37.4766 16.501 37.5703 17.0518 37.7227 17.5439C37.8809 18.0361 38.0947 18.458 38.3643 18.8096C38.6396 19.1553 38.9707 19.4219 39.3574 19.6094C39.75 19.7969 40.1924 19.8906 40.6846 19.8906C41.0244 19.8906 41.3438 19.8525 41.6426 19.7764C41.9473 19.6943 42.2227 19.583 42.4688 19.4424C42.7148 19.3018 42.9346 19.1377 43.1279 18.9502C43.3213 18.7568 43.4854 18.5488 43.6201 18.3262L43.7256 18.3789L43.0752 19.9434C42.7588 20.1074 42.3809 20.248 41.9414 20.3652C41.502 20.4766 40.9746 20.5322 40.3594 20.5322ZM39.1904 15.1709C39.7764 15.1709 40.3623 15.1709 40.9482 15.1709C41.54 15.165 42.0762 15.1533 42.5566 15.1357C42.5039 14.626 42.4043 14.1689 42.2578 13.7646C42.1113 13.3604 41.9238 13.0176 41.6953 12.7363C41.4668 12.4551 41.1973 12.2383 40.8867 12.0859C40.5762 11.9336 40.2334 11.8574 39.8584 11.8574C39.5186 11.8574 39.2051 11.9336 38.918 12.0859C38.6367 12.2324 38.3906 12.4463 38.1797 12.7275C37.9688 13.0088 37.7988 13.3545 37.6699 13.7646C37.541 14.1689 37.4648 14.6318 37.4414 15.1533C37.7051 15.165 37.9834 15.1709 38.2764 15.1709C38.5693 15.1709 38.874 15.1709 39.1904 15.1709ZM52.2246 14.4502C52.2246 13.6768 52.0693 13.1084 51.7588 12.7451C51.4482 12.3818 51.0322 12.2002 50.5107 12.2002C50.3232 12.2002 50.1123 12.2412 49.8779 12.3232C49.6436 12.3994 49.4033 12.5049 49.1572 12.6396C48.9111 12.7686 48.665 12.9209 48.4189 13.0967C48.1729 13.2725 47.9414 13.46 47.7246 13.6592L47.707 14.8105V16.9375C47.707 17.4355 47.7129 17.8721 47.7246 18.2471C47.7363 18.6162 47.7539 18.9355 47.7773 19.2051C47.8008 19.4746 47.8271 19.7002 47.8564 19.8818C47.8857 20.0635 47.918 20.2158 47.9531 20.3389V20.374H45.9229V20.3389C45.958 20.2158 45.9902 20.0635 46.0195 19.8818C46.0547 19.7002 46.0811 19.4746 46.0986 19.2051C46.1221 18.9355 46.1396 18.6162 46.1514 18.2471C46.1689 17.8721 46.1777 17.4355 46.1777 16.9375V14.8105C46.1777 14.3125 46.1689 13.8789 46.1514 13.5098C46.1396 13.1348 46.1221 12.8125 46.0986 12.543C46.0811 12.2734 46.0547 12.0479 46.0195 11.8662C45.9902 11.6846 45.958 11.5322 45.9229 11.4092V11.374H47.9531V11.4092C47.9062 11.5557 47.8682 11.7432 47.8389 11.9717C47.8154 12.1943 47.7891 12.4873 47.7598 12.8506C48 12.6514 48.2578 12.4521 48.5332 12.2529C48.8145 12.0537 49.1045 11.8779 49.4033 11.7256C49.7021 11.5674 50.0068 11.4414 50.3174 11.3477C50.6279 11.248 50.9326 11.1982 51.2314 11.1982C51.6885 11.1982 52.0752 11.2773 52.3916 11.4355C52.7139 11.5938 52.9746 11.8018 53.1738 12.0596C53.3789 12.3174 53.5254 12.6133 53.6133 12.9473C53.707 13.2754 53.7539 13.6094 53.7539 13.9492V16.9375C53.7539 17.4355 53.7598 17.8721 53.7715 18.2471C53.7832 18.6162 53.8008 18.9355 53.8242 19.2051C53.8477 19.4746 53.874 19.7002 53.9033 19.8818C53.9326 20.0635 53.9648 20.2158 54 20.3389V20.374H51.9697V20.3389C52.0049 20.2158 52.0371 20.0635 52.0664 19.8818C52.1016 19.7002 52.1279 19.4746 52.1455 19.2051C52.1689 18.9355 52.1865 18.6162 52.1982 18.2471C52.2158 17.8721 52.2246 17.4355 52.2246 16.9375V14.4502Z" fill="#98DA7E"/>
<path d="M66.25 50.6885H68.8604C69.3174 50.6885 69.7393 50.665 70.126 50.6182C70.5127 50.5654 70.8467 50.5068 71.1279 50.4424C71.4561 50.3721 71.7549 50.2871 72.0244 50.1875L71.6289 51.4443C71.5586 51.4385 71.4355 51.4297 71.2598 51.418C71.0898 51.4121 70.9082 51.4033 70.7148 51.3916C70.5273 51.3857 70.3486 51.3799 70.1787 51.374C70.0088 51.374 69.8945 51.374 69.8359 51.374H64.1406V51.1543L69.8184 43.0596H67.9814C67.4951 43.0596 67.0469 43.0859 66.6367 43.1387C66.2324 43.1914 65.8809 43.25 65.582 43.3145C65.2305 43.3848 64.9141 43.4668 64.6328 43.5605L65.2041 42.3037C65.2744 42.3154 65.3945 42.3242 65.5645 42.3301C65.7402 42.3359 65.9248 42.3447 66.1182 42.3564C66.3115 42.3623 66.4902 42.3682 66.6543 42.374C66.8242 42.374 66.9414 42.374 67.0059 42.374H71.9541V42.5322L66.25 50.6885ZM73.0352 48.7812C73.0352 48.3184 73.1289 47.917 73.3164 47.5771C73.5098 47.2373 73.7646 46.9473 74.0811 46.707C74.3975 46.4668 74.7578 46.2734 75.1621 46.127C75.5664 45.9746 75.9854 45.8574 76.4189 45.7754C76.8525 45.6875 77.2803 45.6289 77.7021 45.5996C78.124 45.5645 78.5107 45.5439 78.8623 45.5381V45.0898C78.8623 44.7031 78.8125 44.3691 78.7129 44.0879C78.6133 43.8066 78.4727 43.5752 78.291 43.3936C78.1094 43.2061 77.8896 43.0684 77.6318 42.9805C77.3799 42.8867 77.1016 42.8398 76.7969 42.8398C76.5859 42.8398 76.3779 42.8574 76.1729 42.8926C75.9678 42.9277 75.7539 42.9863 75.5312 43.0684C75.3145 43.1504 75.083 43.2617 74.8369 43.4023C74.5967 43.543 74.3359 43.7217 74.0547 43.9385L73.9668 43.8857L74.5645 42.6465C74.7578 42.5586 74.9482 42.4883 75.1357 42.4355C75.3232 42.377 75.5137 42.3301 75.707 42.2949C75.9004 42.2598 76.0967 42.2363 76.2959 42.2246C76.501 42.207 76.7148 42.1982 76.9375 42.1982C77.5527 42.1982 78.0771 42.2744 78.5107 42.4268C78.9502 42.5732 79.3076 42.7783 79.583 43.042C79.8643 43.2998 80.0693 43.6045 80.1982 43.9561C80.3271 44.3018 80.3916 44.6738 80.3916 45.0723V47.9375C80.3916 48.4355 80.3975 48.8721 80.4092 49.2471C80.4268 49.6162 80.4443 49.9355 80.4619 50.2051C80.4854 50.4746 80.5117 50.7002 80.541 50.8818C80.5762 51.0635 80.6113 51.2158 80.6465 51.3389V51.374H78.7041V51.3389C78.7334 51.2451 78.7539 51.1396 78.7656 51.0225C78.7832 50.9053 78.7979 50.7646 78.8096 50.6006C78.6865 50.7061 78.54 50.8145 78.3701 50.9258C78.2061 51.0371 78.0156 51.1396 77.7988 51.2334C77.5879 51.3213 77.3506 51.3916 77.0869 51.4443C76.8291 51.5029 76.5449 51.5322 76.2344 51.5322C75.2148 51.5322 74.4268 51.2949 73.8701 50.8203C73.3135 50.3398 73.0352 49.6602 73.0352 48.7812ZM78.8623 46.2236C78.3291 46.2295 77.8164 46.2617 77.3242 46.3203C76.832 46.373 76.3955 46.4873 76.0146 46.6631C75.6396 46.8389 75.3379 47.0908 75.1094 47.4189C74.8867 47.7412 74.7754 48.1719 74.7754 48.7109C74.7754 49.4023 74.9482 49.9297 75.2939 50.293C75.6396 50.6562 76.1172 50.8379 76.7266 50.8379C77.0078 50.8379 77.2627 50.7998 77.4912 50.7236C77.7256 50.6416 77.9307 50.542 78.1064 50.4248C78.2881 50.3018 78.4404 50.1699 78.5635 50.0293C78.6865 49.8828 78.7803 49.7422 78.8447 49.6074C78.8564 49.3848 78.8623 49.1387 78.8623 48.8691C78.8623 48.5938 78.8623 48.2832 78.8623 47.9375V46.2236ZM84.5312 48.2979C84.5312 49.0713 84.6836 49.6396 84.9883 50.0029C85.2988 50.3662 85.7148 50.5479 86.2363 50.5479C86.4238 50.5479 86.6348 50.5098 86.8691 50.4336C87.1035 50.3516 87.3438 50.2461 87.5898 50.1172C87.8418 49.9824 88.0908 49.8271 88.3369 49.6514C88.5889 49.4756 88.8203 49.2881 89.0312 49.0889C89.043 48.9189 89.0488 48.7402 89.0488 48.5527C89.0488 48.3594 89.0488 48.1543 89.0488 47.9375V45.8105C89.0488 45.3125 89.04 44.8789 89.0225 44.5098C89.0107 44.1348 88.9932 43.8125 88.9697 43.543C88.9521 43.2734 88.9258 43.0479 88.8906 42.8662C88.8613 42.6846 88.8291 42.5322 88.7939 42.4092V42.374H90.8242V42.4092C90.7891 42.5322 90.7568 42.6846 90.7275 42.8662C90.6982 43.0479 90.6719 43.2734 90.6484 43.543C90.625 43.8125 90.6074 44.1348 90.5957 44.5098C90.584 44.8789 90.5781 45.3125 90.5781 45.8105V47.9375C90.5781 48.4355 90.584 48.8721 90.5957 49.2471C90.6074 49.6162 90.625 49.9355 90.6484 50.2051C90.6719 50.4746 90.6982 50.7002 90.7275 50.8818C90.7568 51.0635 90.7891 51.2158 90.8242 51.3389V51.374H88.7939V51.3389C88.8291 51.1924 88.8643 51.0049 88.8994 50.7764C88.9404 50.5479 88.9697 50.249 88.9873 49.8799C88.7471 50.085 88.4863 50.2871 88.2051 50.4863C87.9297 50.6855 87.6396 50.8643 87.335 51.0225C87.0361 51.1807 86.7314 51.3066 86.4209 51.4004C86.1162 51.5 85.8145 51.5498 85.5156 51.5498C85.0586 51.5498 84.6689 51.4707 84.3467 51.3125C84.0303 51.1543 83.7695 50.9463 83.5645 50.6885C83.3652 50.4307 83.2188 50.1377 83.125 49.8096C83.0371 49.4814 82.9932 49.1445 82.9932 48.7988V45.8105C82.9932 45.3125 82.9873 44.8789 82.9756 44.5098C82.9639 44.1348 82.9463 43.8125 82.9229 43.543C82.8994 43.2734 82.873 43.0479 82.8438 42.8662C82.8145 42.6846 82.7822 42.5322 82.7471 42.4092V42.374H84.7773V42.4092C84.7422 42.5322 84.71 42.6846 84.6807 42.8662C84.6514 43.0479 84.625 43.2734 84.6016 43.543C84.5781 43.8125 84.5605 44.1348 84.5488 44.5098C84.5371 44.8789 84.5312 45.3125 84.5312 45.8105V48.2979ZM94.8145 42.8223C95.1836 42.623 95.5791 42.4736 96.001 42.374C96.4229 42.2686 96.8535 42.2158 97.293 42.2158C97.9434 42.2158 98.5439 42.3271 99.0947 42.5498C99.6514 42.7666 100.132 43.0771 100.536 43.4814C100.94 43.8857 101.257 44.3779 101.485 44.958C101.714 45.5381 101.828 46.1885 101.828 46.9092C101.828 47.5127 101.723 48.0928 101.512 48.6494C101.307 49.2061 100.996 49.6982 100.58 50.126C100.17 50.5537 99.6572 50.8965 99.042 51.1543C98.4326 51.4062 97.7236 51.5322 96.915 51.5322C96.8213 51.5322 96.6953 51.5293 96.5371 51.5234C96.3848 51.5176 96.2148 51.5059 96.0273 51.4883C95.8398 51.4707 95.6406 51.4473 95.4297 51.418C95.2188 51.3887 95.0137 51.3506 94.8145 51.3037C94.5332 51.2393 94.249 51.1689 93.9619 51.0928C93.6807 51.0107 93.4111 50.9199 93.1533 50.8203C93.1768 50.7324 93.1973 50.5859 93.2148 50.3809C93.2324 50.1699 93.2441 49.9443 93.25 49.7041C93.2617 49.4639 93.2705 49.2295 93.2764 49.001C93.2822 48.7666 93.2852 48.5791 93.2852 48.4385V41.6709C93.2852 41.1729 93.2764 40.7393 93.2588 40.3701C93.2471 39.9951 93.2295 39.6729 93.2061 39.4033C93.1885 39.1338 93.1621 38.9082 93.127 38.7266C93.0977 38.5449 93.0654 38.3926 93.0303 38.2695V38.2344H95.0605V38.2695C95.0254 38.3926 94.9932 38.5449 94.9639 38.7266C94.9346 38.9082 94.9082 39.1338 94.8848 39.4033C94.8613 39.6729 94.8438 39.9951 94.832 40.3701C94.8203 40.7393 94.8145 41.1729 94.8145 41.6709V42.8223ZM94.8145 48.2979C94.8145 48.7725 94.8174 49.165 94.8232 49.4756C94.835 49.7861 94.8496 50.0352 94.8672 50.2227C95.1133 50.4102 95.4473 50.5684 95.8691 50.6973C96.291 50.8262 96.7539 50.8906 97.2578 50.8906C97.6738 50.8906 98.0547 50.8086 98.4004 50.6445C98.7461 50.4805 99.042 50.2432 99.2881 49.9326C99.5342 49.6221 99.7246 49.2441 99.8594 48.7988C100 48.3535 100.07 47.8496 100.07 47.2871C100.07 46.6543 100.012 46.0684 99.8945 45.5293C99.7773 44.9844 99.5957 44.5156 99.3496 44.123C99.1035 43.7246 98.79 43.4141 98.4092 43.1914C98.0283 42.9688 97.5742 42.8574 97.0469 42.8574C96.6016 42.8574 96.1855 42.9482 95.7988 43.1299C95.4121 43.3115 95.084 43.5752 94.8145 43.9209V48.2979ZM107.734 51.5322C107.084 51.5322 106.475 51.4297 105.906 51.2246C105.338 51.0195 104.843 50.7207 104.421 50.3281C103.999 49.9297 103.665 49.4404 103.419 48.8604C103.179 48.2744 103.059 47.6064 103.059 46.8564C103.059 46.1943 103.17 45.582 103.393 45.0195C103.615 44.4512 103.923 43.959 104.315 43.543C104.708 43.127 105.165 42.8018 105.687 42.5674C106.214 42.333 106.782 42.2158 107.392 42.2158C107.995 42.2158 108.555 42.3213 109.07 42.5322C109.586 42.7373 110.031 43.0391 110.406 43.4375C110.787 43.8301 111.086 44.3193 111.303 44.9053C111.525 45.4854 111.646 46.1475 111.663 46.8916C111.001 46.8799 110.339 46.8711 109.677 46.8652C109.015 46.8594 108.326 46.8564 107.611 46.8564C107.102 46.8564 106.604 46.8594 106.117 46.8652C105.637 46.8711 105.203 46.8799 104.816 46.8916C104.852 47.501 104.945 48.0518 105.098 48.5439C105.256 49.0361 105.47 49.458 105.739 49.8096C106.015 50.1553 106.346 50.4219 106.732 50.6094C107.125 50.7969 107.567 50.8906 108.06 50.8906C108.399 50.8906 108.719 50.8525 109.018 50.7764C109.322 50.6943 109.598 50.583 109.844 50.4424C110.09 50.3018 110.31 50.1377 110.503 49.9502C110.696 49.7568 110.86 49.5488 110.995 49.3262L111.101 49.3789L110.45 50.9434C110.134 51.1074 109.756 51.248 109.316 51.3652C108.877 51.4766 108.35 51.5322 107.734 51.5322ZM106.565 46.1709C107.151 46.1709 107.737 46.1709 108.323 46.1709C108.915 46.165 109.451 46.1533 109.932 46.1357C109.879 45.626 109.779 45.1689 109.633 44.7646C109.486 44.3604 109.299 44.0176 109.07 43.7363C108.842 43.4551 108.572 43.2383 108.262 43.0859C107.951 42.9336 107.608 42.8574 107.233 42.8574C106.894 42.8574 106.58 42.9336 106.293 43.0859C106.012 43.2324 105.766 43.4463 105.555 43.7275C105.344 44.0088 105.174 44.3545 105.045 44.7646C104.916 45.1689 104.84 45.6318 104.816 46.1533C105.08 46.165 105.358 46.1709 105.651 46.1709C105.944 46.1709 106.249 46.1709 106.565 46.1709ZM113.553 45.8105C113.553 45.3125 113.544 44.8789 113.526 44.5098C113.515 44.1348 113.497 43.8125 113.474 43.543C113.456 43.2734 113.43 43.0479 113.395 42.8662C113.365 42.6846 113.333 42.5322 113.298 42.4092V42.374H115.328V42.4092C115.281 42.5439 115.24 42.708 115.205 42.9014C115.176 43.0947 115.152 43.3438 115.135 43.6484C115.352 43.4668 115.577 43.2881 115.812 43.1123C116.046 42.9365 116.286 42.7812 116.532 42.6465C116.778 42.5117 117.027 42.4033 117.279 42.3213C117.537 42.2393 117.795 42.1982 118.053 42.1982C118.211 42.1982 118.349 42.207 118.466 42.2246C118.583 42.2363 118.688 42.2568 118.782 42.2861C118.876 42.3096 118.961 42.3389 119.037 42.374C119.113 42.4033 119.187 42.4326 119.257 42.4619L118.826 44.1406L118.677 44.1055C118.606 43.8477 118.475 43.6426 118.281 43.4902C118.088 43.332 117.824 43.2529 117.49 43.2529C117.309 43.2529 117.118 43.2852 116.919 43.3496C116.72 43.4141 116.518 43.5049 116.312 43.6221C116.107 43.7334 115.902 43.8652 115.697 44.0176C115.492 44.1641 115.293 44.3193 115.1 44.4834C115.088 44.6533 115.082 44.8379 115.082 45.0371C115.082 45.2363 115.082 45.4473 115.082 45.6699V47.9375C115.082 48.4355 115.088 48.8721 115.1 49.2471C115.111 49.6162 115.129 49.9355 115.152 50.2051C115.176 50.4746 115.202 50.7002 115.231 50.8818C115.261 51.0635 115.293 51.2158 115.328 51.3389V51.374H113.298V51.3389C113.333 51.2158 113.365 51.0635 113.395 50.8818C113.43 50.7002 113.456 50.4746 113.474 50.2051C113.497 49.9355 113.515 49.6162 113.526 49.2471C113.544 48.8721 113.553 48.4355 113.553 47.9375V45.8105Z" fill="#98DA7E"/>
</svg>
